<mxfile host="app.diagrams.net" modified="2020-07-24T15:38:32.488Z" agent="5.0 (Macintosh; Intel Mac OS X 10_15_5) AppleWebKit/605.1.15 (KHTML, like Gecko) Version/13.1.1 Safari/605.1.15" etag="vgzS4ttIloM7GvEDX50F" version="13.5.3" type="github">
  <diagram name="Main" id="2a216829-ef6e-dabb-86c1-c78162f3ba2b">
    <mxGraphModel dx="3001" dy="955" grid="1" gridSize="10" guides="1" tooltips="1" connect="1" arrows="1" fold="1" page="1" pageScale="1" pageWidth="850" pageHeight="1100" background="#ffffff" math="0" shadow="0">
      <root>
        <mxCell id="0" />
        <mxCell id="1" parent="0" />
        <mxCell id="gIC3RQJ5qYuKizP0WRqa-1" value="&lt;b&gt;&lt;font style=&quot;font-size: 20px&quot;&gt;EXON&lt;/font&gt;&lt;/b&gt;&lt;br&gt;Актуальная на момент составления схема процессов разработки ПО" style="text;spacing=5;spacingTop=-20;overflow=hidden;rounded=0;fontFamily=Helvetica ;align=center;whiteSpace=wrap;html=1;labelBackgroundColor=none;labelBorderColor=none;" vertex="1" parent="1">
          <mxGeometry x="-25" y="80" width="215" height="40" as="geometry" />
        </mxCell>
        <mxCell id="gIC3RQJ5qYuKizP0WRqa-4" value="" style="shape=actor;whiteSpace=wrap;html=1;strokeColor=#000000;fillColor=#ffffff;gradientColor=none;" vertex="1" parent="1">
          <mxGeometry x="50" y="160" width="40" height="60" as="geometry" />
        </mxCell>
        <mxCell id="gIC3RQJ5qYuKizP0WRqa-5" value="Основной клиент (Заказчик)" style="text;html=1;align=center;verticalAlign=middle;resizable=0;points=[];autosize=1;fontStyle=1" vertex="1" parent="1">
          <mxGeometry x="-20" y="140" width="190" height="20" as="geometry" />
        </mxCell>
        <mxCell id="gIC3RQJ5qYuKizP0WRqa-7" value="Формирование бизнес требований и требуемого функционала" style="whiteSpace=wrap;html=1;strokeColor=#000000;fillColor=#ffffff;gradientColor=none;" vertex="1" parent="1">
          <mxGeometry x="-35" y="230" width="210" height="40" as="geometry" />
        </mxCell>
        <mxCell id="gIC3RQJ5qYuKizP0WRqa-10" value="Саитов Р." style="html=1;whiteSpace=wrap;rounded=1;dropTarget=0;strokeColor=#000000;fillColor=#ffffff;gradientColor=none;" vertex="1" parent="1">
          <mxGeometry x="7.5" y="330" width="125" height="40" as="geometry" />
        </mxCell>
        <mxCell id="gIC3RQJ5qYuKizP0WRqa-11" value="" style="html=1;shape=mxgraph.bpmn.user_task;outlineConnect=0;" vertex="1" parent="gIC3RQJ5qYuKizP0WRqa-10">
          <mxGeometry width="14" height="14" relative="1" as="geometry">
            <mxPoint x="7" y="7" as="offset" />
          </mxGeometry>
        </mxCell>
        <mxCell id="gIC3RQJ5qYuKizP0WRqa-13" value="Чернякова Е. + Минаева М." style="whiteSpace=wrap;html=1;rounded=1;" vertex="1" parent="1">
          <mxGeometry x="-10" y="450" width="160" height="40" as="geometry" />
        </mxCell>
        <mxCell id="gIC3RQJ5qYuKizP0WRqa-27" value="" style="endArrow=classic;html=1;" edge="1" parent="1">
          <mxGeometry relative="1" as="geometry">
            <mxPoint x="160" y="460" as="sourcePoint" />
            <mxPoint x="260" y="460" as="targetPoint" />
          </mxGeometry>
        </mxCell>
        <mxCell id="gIC3RQJ5qYuKizP0WRqa-87" value="" style="edgeStyle=orthogonalEdgeStyle;rounded=0;orthogonalLoop=1;jettySize=auto;html=1;fontSize=12;" edge="1" parent="1" source="gIC3RQJ5qYuKizP0WRqa-29" target="gIC3RQJ5qYuKizP0WRqa-86">
          <mxGeometry relative="1" as="geometry" />
        </mxCell>
        <mxCell id="gIC3RQJ5qYuKizP0WRqa-29" value="Системные аналитики" style="whiteSpace=wrap;html=1;rounded=1;" vertex="1" parent="1">
          <mxGeometry x="-10" y="620" width="160" height="27.5" as="geometry" />
        </mxCell>
        <mxCell id="gIC3RQJ5qYuKizP0WRqa-41" value="&lt;div style=&quot;text-align: left&quot;&gt;&lt;span style=&quot;font-size: 10px&quot;&gt;- Формирование требований &amp;nbsp;ПО&lt;/span&gt;&lt;/div&gt;&lt;div style=&quot;text-align: left&quot;&gt;&lt;span style=&quot;font-size: 10px&quot;&gt;&amp;nbsp;для команды разработки&lt;/span&gt;&lt;/div&gt;&lt;font style=&quot;font-size: 10px&quot;&gt;&lt;div style=&quot;text-align: left&quot;&gt;- Составление ТЗ/ЧТЗ&lt;/div&gt;&lt;div style=&quot;text-align: left&quot;&gt;- Тестирование и анализ требований&lt;/div&gt;&lt;/font&gt;" style="shape=step;perimeter=stepPerimeter;whiteSpace=wrap;html=1;fixedSize=1;strokeColor=#000000;fillColor=#ffffff;gradientColor=none;size=20;" vertex="1" parent="1">
          <mxGeometry x="240" y="601.25" width="220" height="65" as="geometry" />
        </mxCell>
        <mxCell id="gIC3RQJ5qYuKizP0WRqa-44" value="Отрисовка экранных&lt;br&gt;&amp;nbsp;форм&amp;nbsp;" style="shape=step;perimeter=stepPerimeter;whiteSpace=wrap;html=1;fixedSize=1;strokeColor=#000000;fillColor=#ffffff;gradientColor=none;" vertex="1" parent="1">
          <mxGeometry x="260" y="470" width="160" height="28" as="geometry" />
        </mxCell>
        <mxCell id="gIC3RQJ5qYuKizP0WRqa-63" value="Согласование с ПМ" style="shape=step;perimeter=stepPerimeter;whiteSpace=wrap;html=1;fixedSize=1;strokeColor=#000000;fillColor=#ffffff;gradientColor=none;" vertex="1" parent="1">
          <mxGeometry x="260" y="436" width="160" height="28" as="geometry" />
        </mxCell>
        <mxCell id="gIC3RQJ5qYuKizP0WRqa-133" value="" style="edgeStyle=orthogonalEdgeStyle;rounded=0;orthogonalLoop=1;jettySize=auto;html=1;fontSize=8;fontColor=none;" edge="1" parent="1" source="gIC3RQJ5qYuKizP0WRqa-65">
          <mxGeometry relative="1" as="geometry">
            <mxPoint x="70" y="430" as="targetPoint" />
          </mxGeometry>
        </mxCell>
        <mxCell id="gIC3RQJ5qYuKizP0WRqa-65" value="&lt;font style=&quot;font-size: 8px&quot;&gt;Формирование&lt;br&gt;требований&lt;/font&gt;" style="shape=partialRectangle;whiteSpace=wrap;html=1;left=0;right=0;fillColor=none;strokeColor=#000000;fontSize=10;" vertex="1" parent="1">
          <mxGeometry x="32.5" y="370" width="75" height="30" as="geometry" />
        </mxCell>
        <mxCell id="gIC3RQJ5qYuKizP0WRqa-66" value="" style="edgeStyle=elbowEdgeStyle;elbow=horizontal;endArrow=classic;html=1;fontSize=10;entryX=1;entryY=0.5;entryDx=0;entryDy=0;exitX=1;exitY=0.5;exitDx=0;exitDy=0;" edge="1" parent="1" source="gIC3RQJ5qYuKizP0WRqa-44" target="gIC3RQJ5qYuKizP0WRqa-63">
          <mxGeometry width="50" height="50" relative="1" as="geometry">
            <mxPoint x="480" y="510" as="sourcePoint" />
            <mxPoint x="530" y="460" as="targetPoint" />
            <Array as="points">
              <mxPoint x="440" y="470" />
            </Array>
          </mxGeometry>
        </mxCell>
        <mxCell id="gIC3RQJ5qYuKizP0WRqa-67" value="" style="endArrow=none;dashed=1;html=1;dashPattern=1 3;strokeWidth=2;fontSize=10;" edge="1" parent="1">
          <mxGeometry width="50" height="50" relative="1" as="geometry">
            <mxPoint x="-40" y="565" as="sourcePoint" />
            <mxPoint x="5" y="564.8" as="targetPoint" />
            <Array as="points" />
          </mxGeometry>
        </mxCell>
        <mxCell id="gIC3RQJ5qYuKizP0WRqa-68" value="" style="endArrow=classic;html=1;fontSize=10;" edge="1" parent="1">
          <mxGeometry relative="1" as="geometry">
            <mxPoint x="70" y="490" as="sourcePoint" />
            <mxPoint x="70" y="550" as="targetPoint" />
          </mxGeometry>
        </mxCell>
        <mxCell id="gIC3RQJ5qYuKizP0WRqa-70" value="" style="endArrow=none;dashed=1;html=1;dashPattern=1 3;strokeWidth=2;fontSize=10;" edge="1" parent="1">
          <mxGeometry width="50" height="50" relative="1" as="geometry">
            <mxPoint x="-40" y="560" as="sourcePoint" />
            <mxPoint x="-40" y="350" as="targetPoint" />
            <Array as="points">
              <mxPoint x="-40" y="490" />
            </Array>
          </mxGeometry>
        </mxCell>
        <mxCell id="gIC3RQJ5qYuKizP0WRqa-72" value="Нет&amp;nbsp;" style="edgeLabel;html=1;align=center;verticalAlign=middle;resizable=0;points=[];fontSize=12;rotation=270;" vertex="1" connectable="0" parent="gIC3RQJ5qYuKizP0WRqa-70">
          <mxGeometry x="-0.3333" y="-20" relative="1" as="geometry">
            <mxPoint x="-29.5" y="60.290000000000006" as="offset" />
          </mxGeometry>
        </mxCell>
        <mxCell id="gIC3RQJ5qYuKizP0WRqa-71" value="" style="endArrow=none;dashed=1;html=1;dashPattern=1 3;strokeWidth=2;fontSize=10;entryX=0;entryY=0.5;entryDx=0;entryDy=0;" edge="1" parent="1" target="gIC3RQJ5qYuKizP0WRqa-10">
          <mxGeometry width="50" height="50" relative="1" as="geometry">
            <mxPoint x="-40" y="350" as="sourcePoint" />
            <mxPoint x="10" y="360" as="targetPoint" />
          </mxGeometry>
        </mxCell>
        <mxCell id="gIC3RQJ5qYuKizP0WRqa-75" value="" style="endArrow=none;dashed=1;html=1;dashPattern=1 3;strokeWidth=2;fontSize=10;entryX=0.5;entryY=1;entryDx=0;entryDy=0;" edge="1" parent="1" target="gIC3RQJ5qYuKizP0WRqa-80">
          <mxGeometry width="50" height="50" relative="1" as="geometry">
            <mxPoint x="70" y="620" as="sourcePoint" />
            <mxPoint x="69.58" y="559.9999999999998" as="targetPoint" />
            <Array as="points">
              <mxPoint x="70" y="620" />
            </Array>
          </mxGeometry>
        </mxCell>
        <mxCell id="gIC3RQJ5qYuKizP0WRqa-77" value="Да" style="edgeLabel;html=1;align=center;verticalAlign=middle;resizable=0;points=[];fontSize=12;rotation=-90;" vertex="1" connectable="0" parent="gIC3RQJ5qYuKizP0WRqa-75">
          <mxGeometry x="0.0503" y="1" relative="1" as="geometry">
            <mxPoint x="-19" y="1.1999999999999993" as="offset" />
          </mxGeometry>
        </mxCell>
        <mxCell id="gIC3RQJ5qYuKizP0WRqa-78" value="" style="endArrow=classic;html=1;" edge="1" parent="1">
          <mxGeometry relative="1" as="geometry">
            <mxPoint x="160" y="633" as="sourcePoint" />
            <mxPoint x="250" y="633.3299999999999" as="targetPoint" />
          </mxGeometry>
        </mxCell>
        <mxCell id="gIC3RQJ5qYuKizP0WRqa-80" value="Формы согласованы" style="rounded=0;whiteSpace=wrap;html=1;strokeColor=#000000;strokeWidth=1;fillColor=#ffffff;gradientColor=none;fontSize=12;" vertex="1" parent="1">
          <mxGeometry x="5" y="550" width="130" height="30" as="geometry" />
        </mxCell>
        <mxCell id="gIC3RQJ5qYuKizP0WRqa-86" value="Тимлид команды разработки" style="whiteSpace=wrap;html=1;rounded=1;" vertex="1" parent="1">
          <mxGeometry x="-15" y="711.25" width="170" height="28.75" as="geometry" />
        </mxCell>
        <mxCell id="gIC3RQJ5qYuKizP0WRqa-93" value="Команда разработки" style="html=1;whiteSpace=wrap;rounded=1;dropTarget=0;strokeColor=#000000;strokeWidth=1;fillColor=#ffffff;gradientColor=none;fontSize=12;" vertex="1" parent="1">
          <mxGeometry x="-22.5" y="824.37" width="190" height="30" as="geometry" />
        </mxCell>
        <mxCell id="gIC3RQJ5qYuKizP0WRqa-94" value="" style="shape=mxgraph.bpmn.timer_start;perimeter=ellipsePerimeter;html=1;verticalLabelPosition=bottom;verticalAlign=top;outlineConnect=0;" vertex="1" parent="gIC3RQJ5qYuKizP0WRqa-93">
          <mxGeometry x="1" y="1" width="30" height="30" relative="1" as="geometry">
            <mxPoint x="-40" y="-15" as="offset" />
          </mxGeometry>
        </mxCell>
        <mxCell id="gIC3RQJ5qYuKizP0WRqa-96" value="Q&amp;amp;A (Тестирование)" style="html=1;whiteSpace=wrap;rounded=1;dropTarget=0;strokeColor=#000000;strokeWidth=1;fillColor=#ffffff;gradientColor=none;fontSize=10;" vertex="1" parent="1">
          <mxGeometry x="-22.5" y="874.37" width="190" height="20" as="geometry" />
        </mxCell>
        <mxCell id="gIC3RQJ5qYuKizP0WRqa-97" value="" style="shape=mxgraph.bpmn.timer_start;perimeter=ellipsePerimeter;html=1;labelPosition=right;align=left;outlineConnect=0;" vertex="1" parent="gIC3RQJ5qYuKizP0WRqa-96">
          <mxGeometry x="1" width="30" height="30" relative="1" as="geometry">
            <mxPoint x="-15" y="10" as="offset" />
          </mxGeometry>
        </mxCell>
        <mxCell id="gIC3RQJ5qYuKizP0WRqa-99" value="" style="html=1;shape=mxgraph.flowchart.annotation_2;align=left;labelPosition=right;strokeColor=#000000;strokeWidth=1;fillColor=#ffffff;gradientColor=none;fontSize=10;" vertex="1" parent="1">
          <mxGeometry x="-50" y="834.37" width="20" height="50" as="geometry" />
        </mxCell>
        <mxCell id="gIC3RQJ5qYuKizP0WRqa-100" value="" style="rounded=1;arcSize=10;dashed=1;strokeColor=#000000;fillColor=none;gradientColor=none;dashPattern=8 3 1 3;strokeWidth=2;fontSize=10;" vertex="1" parent="1">
          <mxGeometry x="-99.5" y="810" width="300" height="110" as="geometry" />
        </mxCell>
        <mxCell id="gIC3RQJ5qYuKizP0WRqa-101" value="DevOps" style="text;html=1;align=center;verticalAlign=middle;resizable=0;points=[];autosize=1;fontSize=10;" vertex="1" parent="1">
          <mxGeometry x="-99.5" y="849.37" width="50" height="20" as="geometry" />
        </mxCell>
        <mxCell id="gIC3RQJ5qYuKizP0WRqa-104" value="" style="edgeStyle=segmentEdgeStyle;endArrow=classic;html=1;fontSize=10;exitX=0;exitY=0.5;exitDx=0;exitDy=0;" edge="1" parent="1" source="gIC3RQJ5qYuKizP0WRqa-86">
          <mxGeometry width="50" height="50" relative="1" as="geometry">
            <mxPoint x="-110" y="750" as="sourcePoint" />
            <mxPoint x="-50" y="470" as="targetPoint" />
            <Array as="points">
              <mxPoint x="-100" y="726" />
              <mxPoint x="-100" y="470" />
            </Array>
          </mxGeometry>
        </mxCell>
        <mxCell id="gIC3RQJ5qYuKizP0WRqa-107" value="Готовый результат отдаётся клиенту" style="edgeLabel;html=1;align=center;verticalAlign=middle;resizable=0;points=[];fontSize=10;rotation=270;" vertex="1" connectable="0" parent="gIC3RQJ5qYuKizP0WRqa-104">
          <mxGeometry x="0.3178" y="-1" relative="1" as="geometry">
            <mxPoint x="-11" y="69.4" as="offset" />
          </mxGeometry>
        </mxCell>
        <mxCell id="gIC3RQJ5qYuKizP0WRqa-105" value="" style="startArrow=oval;startFill=0;startSize=7;endArrow=block;endFill=0;endSize=10;dashed=1;html=1;fontSize=10;entryX=0.5;entryY=1;entryDx=0;entryDy=0;" edge="1" parent="1" target="gIC3RQJ5qYuKizP0WRqa-86">
          <mxGeometry relative="1" as="geometry">
            <mxPoint x="70" y="807" as="sourcePoint" />
            <mxPoint x="170" y="740" as="targetPoint" />
          </mxGeometry>
        </mxCell>
        <mxCell id="gIC3RQJ5qYuKizP0WRqa-106" value="" style="shape=message;html=1;outlineConnect=0;" vertex="1" parent="gIC3RQJ5qYuKizP0WRqa-105">
          <mxGeometry width="20" height="14" relative="1" as="geometry">
            <mxPoint x="-10" y="6.789999999999999" as="offset" />
          </mxGeometry>
        </mxCell>
        <mxCell id="gIC3RQJ5qYuKizP0WRqa-108" value="Кисилёв А." style="html=1;whiteSpace=wrap;rounded=1;dropTarget=0;strokeColor=#000000;fillColor=#ffffff;gradientColor=none;" vertex="1" parent="1">
          <mxGeometry x="-197.5" y="330" width="125" height="40" as="geometry" />
        </mxCell>
        <mxCell id="gIC3RQJ5qYuKizP0WRqa-109" value="" style="html=1;shape=mxgraph.bpmn.user_task;outlineConnect=0;" vertex="1" parent="gIC3RQJ5qYuKizP0WRqa-108">
          <mxGeometry width="14" height="14" relative="1" as="geometry">
            <mxPoint x="7" y="7" as="offset" />
          </mxGeometry>
        </mxCell>
        <mxCell id="gIC3RQJ5qYuKizP0WRqa-110" value="" style="edgeStyle=segmentEdgeStyle;endArrow=classic;html=1;fontSize=10;" edge="1" parent="1">
          <mxGeometry width="50" height="50" relative="1" as="geometry">
            <mxPoint x="-200" y="350" as="sourcePoint" />
            <mxPoint x="-200.03" y="389.94000000000005" as="targetPoint" />
            <Array as="points">
              <mxPoint x="-220" y="350" />
              <mxPoint x="-220" y="390" />
            </Array>
          </mxGeometry>
        </mxCell>
        <mxCell id="gIC3RQJ5qYuKizP0WRqa-111" value="Продуктологи - внедренцы:&lt;br&gt;&lt;div style=&quot;text-align: left&quot;&gt;Павлова А.&lt;/div&gt;&lt;div&gt;&lt;div style=&quot;text-align: left&quot;&gt;Хардеев Г.&lt;/div&gt;&lt;/div&gt;" style="text;html=1;align=center;verticalAlign=middle;resizable=0;points=[];autosize=1;fontSize=10;" vertex="1" parent="1">
          <mxGeometry x="-199.5" y="380" width="150" height="40" as="geometry" />
        </mxCell>
        <mxCell id="gIC3RQJ5qYuKizP0WRqa-115" value="" style="rounded=1;arcSize=10;dashed=1;gradientColor=none;dashPattern=8 3 1 3;strokeWidth=1;shadow=0;glass=0;sketch=0;fontSize=2;fillColor=none;" vertex="1" parent="1">
          <mxGeometry x="-226" y="320" width="176" height="110" as="geometry" />
        </mxCell>
        <mxCell id="gIC3RQJ5qYuKizP0WRqa-116" value="&lt;font style=&quot;font-size: 12px&quot;&gt;&lt;b&gt;Группа по продукту&lt;/b&gt;&lt;/font&gt;" style="text;html=1;align=center;verticalAlign=middle;resizable=0;points=[];autosize=1;fontSize=2;" vertex="1" parent="1">
          <mxGeometry x="-202.5" y="300" width="140" height="10" as="geometry" />
        </mxCell>
        <mxCell id="gIC3RQJ5qYuKizP0WRqa-117" value="" style="edgeStyle=elbowEdgeStyle;elbow=horizontal;endArrow=classic;html=1;fontSize=2;exitX=0;exitY=0.5;exitDx=0;exitDy=0;" edge="1" parent="1" source="gIC3RQJ5qYuKizP0WRqa-7">
          <mxGeometry width="50" height="50" relative="1" as="geometry">
            <mxPoint x="-80" y="200" as="sourcePoint" />
            <mxPoint x="-130" y="290" as="targetPoint" />
            <Array as="points">
              <mxPoint x="-130" y="220" />
            </Array>
          </mxGeometry>
        </mxCell>
        <mxCell id="gIC3RQJ5qYuKizP0WRqa-125" value="" style="endArrow=classic;startArrow=classic;html=1;fontSize=8;exitX=0.5;exitY=1;exitDx=0;exitDy=0;entryX=0;entryY=0.75;entryDx=0;entryDy=0;" edge="1" parent="1" target="gIC3RQJ5qYuKizP0WRqa-4">
          <mxGeometry width="50" height="50" relative="1" as="geometry">
            <mxPoint x="-141.5" y="220" as="sourcePoint" />
            <mxPoint x="30" y="200" as="targetPoint" />
            <Array as="points">
              <mxPoint x="-141" y="260" />
              <mxPoint x="-50" y="260" />
              <mxPoint x="-50" y="205" />
            </Array>
          </mxGeometry>
        </mxCell>
        <mxCell id="gIC3RQJ5qYuKizP0WRqa-127" value="&lt;font style=&quot;font-size: 12px&quot;&gt;&lt;b&gt;Проектная группа&lt;/b&gt;&lt;/font&gt;" style="text;html=1;align=center;verticalAlign=middle;resizable=0;points=[];autosize=1;fontSize=2;" vertex="1" parent="1">
          <mxGeometry x="-15" y="426" width="120" height="10" as="geometry" />
        </mxCell>
        <mxCell id="gIC3RQJ5qYuKizP0WRqa-128" value="" style="rounded=1;arcSize=10;dashed=1;gradientColor=none;dashPattern=8 3 1 3;strokeWidth=1;shadow=0;glass=0;sketch=0;fontSize=2;fillColor=none;" vertex="1" parent="1">
          <mxGeometry x="-25" y="440" width="190" height="310" as="geometry" />
        </mxCell>
        <mxCell id="gIC3RQJ5qYuKizP0WRqa-130" value="" style="endArrow=classic;html=1;fontSize=8;fontColor=none;" edge="1" parent="1">
          <mxGeometry width="50" height="50" relative="1" as="geometry">
            <mxPoint x="250" y="470" as="sourcePoint" />
            <mxPoint x="155" y="470" as="targetPoint" />
          </mxGeometry>
        </mxCell>
        <mxCell id="gIC3RQJ5qYuKizP0WRqa-131" value="" style="endArrow=classic;html=1;fontSize=8;fontColor=none;" edge="1" parent="1">
          <mxGeometry width="50" height="50" relative="1" as="geometry">
            <mxPoint x="250" y="640" as="sourcePoint" />
            <mxPoint x="155" y="640" as="targetPoint" />
          </mxGeometry>
        </mxCell>
        <mxCell id="gIC3RQJ5qYuKizP0WRqa-135" value="" style="startArrow=oval;startFill=0;startSize=7;endArrow=block;endFill=0;endSize=10;dashed=1;html=1;fontSize=10;entryX=0.5;entryY=1;entryDx=0;entryDy=0;exitX=0.355;exitY=1.015;exitDx=0;exitDy=0;exitPerimeter=0;" edge="1" parent="1" source="gIC3RQJ5qYuKizP0WRqa-86">
          <mxGeometry relative="1" as="geometry">
            <mxPoint x="45" y="770" as="sourcePoint" />
            <mxPoint x="44.88" y="807.37" as="targetPoint" />
          </mxGeometry>
        </mxCell>
        <mxCell id="gIC3RQJ5qYuKizP0WRqa-136" value="" style="shape=message;html=1;outlineConnect=0;" vertex="1" parent="gIC3RQJ5qYuKizP0WRqa-135">
          <mxGeometry width="20" height="14" relative="1" as="geometry">
            <mxPoint x="-10.11" y="-13.920000000000002" as="offset" />
          </mxGeometry>
        </mxCell>
        <mxCell id="gIC3RQJ5qYuKizP0WRqa-142" style="edgeStyle=orthogonalEdgeStyle;rounded=0;orthogonalLoop=1;jettySize=auto;html=1;exitX=1;exitY=0.25;exitDx=0;exitDy=0;fontSize=8;fontColor=#000000;" edge="1" parent="1" target="gIC3RQJ5qYuKizP0WRqa-4">
          <mxGeometry relative="1" as="geometry">
            <mxPoint x="-80.5" y="197.5" as="sourcePoint" />
          </mxGeometry>
        </mxCell>
        <mxCell id="gIC3RQJ5qYuKizP0WRqa-144" value="&lt;font style=&quot;font-size: 12px&quot;&gt;Команда поддержки &amp;nbsp;(EXON SUPPORT)&lt;/font&gt;" style="shape=ext;double=0;rounded=1;whiteSpace=wrap;html=1;shadow=0;glass=0;labelBackgroundColor=none;sketch=1;strokeColor=#000000;strokeWidth=1;fillColor=none;gradientColor=none;fontSize=8;fontColor=#000000;" vertex="1" parent="1">
          <mxGeometry x="-99" y="940" width="299" height="20" as="geometry" />
        </mxCell>
        <mxCell id="gIC3RQJ5qYuKizP0WRqa-146" value="" style="endArrow=none;dashed=1;html=1;fontSize=8;fontColor=#000000;exitX=0.5;exitY=0;exitDx=0;exitDy=0;fontStyle=1" edge="1" parent="1" source="gIC3RQJ5qYuKizP0WRqa-144" target="gIC3RQJ5qYuKizP0WRqa-100">
          <mxGeometry width="50" height="50" relative="1" as="geometry">
            <mxPoint x="40" y="960" as="sourcePoint" />
            <mxPoint x="90" y="910" as="targetPoint" />
          </mxGeometry>
        </mxCell>
        <mxCell id="gIC3RQJ5qYuKizP0WRqa-147" value="" style="shape=sumEllipse;perimeter=ellipsePerimeter;whiteSpace=wrap;html=1;backgroundOutline=1;rounded=1;shadow=0;glass=0;labelBackgroundColor=none;sketch=0;strokeColor=#000000;strokeWidth=1;fillColor=none;gradientColor=none;fontSize=8;fontColor=#000000;" vertex="1" parent="1">
          <mxGeometry x="-285.5" y="446" width="19" height="18" as="geometry" />
        </mxCell>
        <mxCell id="gIC3RQJ5qYuKizP0WRqa-149" value="&lt;span&gt;Прямое взаимодействие &amp;nbsp;с клиентом и получение обратной связи&lt;/span&gt;" style="rounded=1;whiteSpace=wrap;html=1;shadow=0;glass=0;labelBackgroundColor=none;sketch=0;strokeColor=#000000;strokeWidth=3;fillColor=none;gradientColor=none;fontSize=8;fontColor=#000000;" vertex="1" parent="1">
          <mxGeometry x="-199.5" y="180" width="120" height="40" as="geometry" />
        </mxCell>
        <mxCell id="gIC3RQJ5qYuKizP0WRqa-150" value="" style="endArrow=classic;html=1;fontSize=8;fontColor=#000000;exitX=0.25;exitY=1;exitDx=0;exitDy=0;entryX=0.079;entryY=-0.036;entryDx=0;entryDy=0;entryPerimeter=0;" edge="1" parent="1" source="gIC3RQJ5qYuKizP0WRqa-149" target="gIC3RQJ5qYuKizP0WRqa-115">
          <mxGeometry width="50" height="50" relative="1" as="geometry">
            <mxPoint x="-250" y="250" as="sourcePoint" />
            <mxPoint x="-200" y="200" as="targetPoint" />
            <Array as="points">
              <mxPoint x="-169" y="240" />
              <mxPoint x="-190" y="240" />
              <mxPoint x="-212" y="240" />
            </Array>
          </mxGeometry>
        </mxCell>
        <mxCell id="gIC3RQJ5qYuKizP0WRqa-152" value="&lt;font style=&quot;font-size: 12px&quot;&gt;Вопросы или &lt;br&gt;срочные баги?&lt;/font&gt;" style="text;html=1;align=center;verticalAlign=middle;resizable=0;points=[];autosize=1;fontSize=8;fontColor=#000000;" vertex="1" parent="1">
          <mxGeometry x="-326" y="464" width="100" height="30" as="geometry" />
        </mxCell>
        <mxCell id="gIC3RQJ5qYuKizP0WRqa-155" value="" style="endArrow=classic;startArrow=classic;html=1;shadow=1;fontSize=8;fontColor=#000000;entryX=0;entryY=0.5;entryDx=0;entryDy=0;exitX=0.5;exitY=0;exitDx=0;exitDy=0;" edge="1" parent="1" source="gIC3RQJ5qYuKizP0WRqa-147" target="gIC3RQJ5qYuKizP0WRqa-115">
          <mxGeometry width="50" height="50" relative="1" as="geometry">
            <mxPoint x="-270" y="440" as="sourcePoint" />
            <mxPoint x="10" y="490" as="targetPoint" />
            <Array as="points">
              <mxPoint x="-276" y="375" />
            </Array>
          </mxGeometry>
        </mxCell>
        <mxCell id="gIC3RQJ5qYuKizP0WRqa-160" value="" style="endArrow=classic;html=1;shadow=1;fontSize=8;fontColor=#000000;exitX=0.556;exitY=1.033;exitDx=0;exitDy=0;exitPerimeter=0;" edge="1" parent="1" source="gIC3RQJ5qYuKizP0WRqa-152">
          <mxGeometry width="50" height="50" relative="1" as="geometry">
            <mxPoint x="-300" y="570" as="sourcePoint" />
            <mxPoint x="-99" y="720" as="targetPoint" />
            <Array as="points">
              <mxPoint x="-271" y="720" />
            </Array>
          </mxGeometry>
        </mxCell>
        <mxCell id="gIC3RQJ5qYuKizP0WRqa-162" value="&lt;font style=&quot;font-size: 12px&quot;&gt;Да&lt;/font&gt;" style="edgeLabel;html=1;align=center;verticalAlign=middle;resizable=0;points=[];fontSize=8;fontColor=#000000;rotation=270;" vertex="1" connectable="0" parent="gIC3RQJ5qYuKizP0WRqa-160">
          <mxGeometry x="-0.6641" y="2" relative="1" as="geometry">
            <mxPoint x="-16.5" y="0.01" as="offset" />
          </mxGeometry>
        </mxCell>
      </root>
    </mxGraphModel>
  </diagram>
</mxfile>
